<svg xmlns="http://www.w3.org/2000/svg" xmlns:xlink="http://www.w3.org/1999/xlink" width="512" zoomAndPan="magnify" viewBox="0 0 384 191.999996" height="256" preserveAspectRatio="xMidYMid meet" version="1.0"><defs><g/></defs><g fill="#00ffff" fill-opacity="1"><g transform="translate(19.069022, 106.584213)"><g><path d="M -1.109375 -3.1875 L -8.8125 -25.484375 L -2.453125 -27.6875 L 1.953125 -14.953125 L 8.34375 -17.15625 L 7.25 -20.34375 L 10.4375 -21.4375 L 9.328125 -24.609375 L 15.6875 -26.8125 L 16.796875 -23.640625 L 13.609375 -22.546875 L 14.703125 -19.359375 L 11.53125 -18.25 L 12.640625 -15.0625 L 15.8125 -16.171875 L 16.90625 -12.96875 L 20.09375 -14.0625 L 21.1875 -10.890625 L 14.828125 -8.6875 L 13.734375 -11.859375 L 10.546875 -10.765625 L 9.453125 -13.96875 L 3.0625 -11.765625 L 5.25 -5.390625 Z M -1.109375 -3.1875 "/></g></g></g><g fill="#00ffff" fill-opacity="1"><g transform="translate(43.167498, 98.172335)"><g><path d="M 2.546875 -4.046875 L 1.8125 -7.3125 L -1.484375 -6.5625 L -2.21875 -9.859375 L 1.078125 -10.609375 L 0.328125 -13.90625 L 13.484375 -16.859375 L 12.75 -20.15625 L -0.40625 -17.203125 L -1.15625 -20.46875 L 15.265625 -24.171875 L 16.015625 -20.90625 L 19.3125 -21.640625 L 22.265625 -8.484375 Z M 5.078125 -8.046875 L 14.96875 -10.265625 L 14.234375 -13.5625 L 4.34375 -11.34375 Z M 5.078125 -8.046875 "/></g></g></g><g fill="#00ffff" fill-opacity="1"><g transform="translate(68.048877, 92.479074)"><g><path d="M 9.671875 -4.484375 L 8.1875 -17.875 L 1.5 -17.125 L 1.125 -20.46875 L 7.8125 -21.21875 L 7.0625 -27.921875 L 13.765625 -28.65625 L 14.515625 -21.953125 L 21.21875 -22.703125 L 21.59375 -19.359375 L 14.890625 -18.609375 L 16.375 -5.21875 Z M 9.671875 -4.484375 "/></g></g></g><g fill="#00ffff" fill-opacity="1"><g transform="translate(93.563645, 89.574372)"><g><path d="M 3.375 0 L 3.375 -3.375 L 16.859375 -3.375 L 16.859375 -6.734375 L 3.375 -6.734375 L 3.375 -10.109375 L 0 -10.109375 L 0 -20.21875 L 6.734375 -20.21875 L 6.734375 -10.109375 L 16.859375 -10.109375 L 16.859375 -20.21875 L 23.59375 -20.21875 L 23.59375 -3.375 L 20.21875 -3.375 L 20.21875 0 Z M 3.375 0 "/></g></g></g><g fill="#00ffff" fill-opacity="1"><g transform="translate(118.931791, 89.49392)"><g><path d="M 3.734375 -2.984375 L 4.109375 -6.3125 L 0.75 -6.6875 L 1.125 -10.046875 L 4.484375 -9.671875 L 4.84375 -13.03125 L 18.234375 -11.546875 L 18.609375 -14.890625 L 5.21875 -16.375 L 5.59375 -19.71875 L 22.328125 -17.859375 L 21.953125 -14.515625 L 25.3125 -14.140625 L 23.828125 -0.75 Z M 7.4375 -5.9375 L 17.5 -4.828125 L 17.875 -8.1875 L 7.8125 -9.296875 Z M 7.4375 -5.9375 "/></g></g></g><g fill="#00ffff" fill-opacity="1"><g transform="translate(144.308213, 92.2387)"><g><path d="M 10.265625 -14.96875 L 11.015625 -18.234375 L 14.3125 -17.5 L 15.796875 -24.09375 L 22.390625 -22.609375 L 20.90625 -16.015625 L 17.609375 -16.75 L 16.859375 -13.484375 Z M 10.265625 -14.96875 "/></g></g></g><g fill="#00ffff" fill-opacity="1"><g transform="translate(169.224985, 97.774995)"><g><path d="M 1.109375 -3.1875 L 2.203125 -6.359375 L 18.140625 -0.859375 L 19.234375 -4.0625 L 6.484375 -8.453125 L 7.59375 -11.640625 L 4.40625 -12.75 L 5.5 -15.9375 L 8.6875 -14.828125 L 9.796875 -18 L 25.71875 -12.5 L 24.609375 -9.328125 L 11.859375 -13.734375 L 10.765625 -10.546875 L 23.515625 -6.140625 L 22.40625 -2.953125 L 25.59375 -1.859375 L 24.5 1.34375 L 21.3125 0.25 L 20.21875 3.421875 Z M 1.109375 -3.1875 "/></g></g></g><g fill="#ff00ff" fill-opacity="1"><g transform="translate(21.024657, 106.584213)"><g><path d="M -1.109375 -3.1875 L -8.8125 -25.484375 L -2.453125 -27.6875 L 1.953125 -14.953125 L 8.34375 -17.15625 L 7.25 -20.34375 L 10.4375 -21.4375 L 9.328125 -24.609375 L 15.6875 -26.8125 L 16.796875 -23.640625 L 13.609375 -22.546875 L 14.703125 -19.359375 L 11.53125 -18.25 L 12.640625 -15.0625 L 15.8125 -16.171875 L 16.90625 -12.96875 L 20.09375 -14.0625 L 21.1875 -10.890625 L 14.828125 -8.6875 L 13.734375 -11.859375 L 10.546875 -10.765625 L 9.453125 -13.96875 L 3.0625 -11.765625 L 5.25 -5.390625 Z M -1.109375 -3.1875 "/></g></g></g><g fill="#ff00ff" fill-opacity="1"><g transform="translate(45.123134, 98.172335)"><g><path d="M 2.546875 -4.046875 L 1.8125 -7.3125 L -1.484375 -6.5625 L -2.21875 -9.859375 L 1.078125 -10.609375 L 0.328125 -13.90625 L 13.484375 -16.859375 L 12.75 -20.15625 L -0.40625 -17.203125 L -1.15625 -20.46875 L 15.265625 -24.171875 L 16.015625 -20.90625 L 19.3125 -21.640625 L 22.265625 -8.484375 Z M 5.078125 -8.046875 L 14.96875 -10.265625 L 14.234375 -13.5625 L 4.34375 -11.34375 Z M 5.078125 -8.046875 "/></g></g></g><g fill="#ff00ff" fill-opacity="1"><g transform="translate(70.004514, 92.479074)"><g><path d="M 9.671875 -4.484375 L 8.1875 -17.875 L 1.5 -17.125 L 1.125 -20.46875 L 7.8125 -21.21875 L 7.0625 -27.921875 L 13.765625 -28.65625 L 14.515625 -21.953125 L 21.21875 -22.703125 L 21.59375 -19.359375 L 14.890625 -18.609375 L 16.375 -5.21875 Z M 9.671875 -4.484375 "/></g></g></g><g fill="#ff00ff" fill-opacity="1"><g transform="translate(95.519275, 89.574372)"><g><path d="M 3.375 0 L 3.375 -3.375 L 16.859375 -3.375 L 16.859375 -6.734375 L 3.375 -6.734375 L 3.375 -10.109375 L 0 -10.109375 L 0 -20.21875 L 6.734375 -20.21875 L 6.734375 -10.109375 L 16.859375 -10.109375 L 16.859375 -20.21875 L 23.59375 -20.21875 L 23.59375 -3.375 L 20.21875 -3.375 L 20.21875 0 Z M 3.375 0 "/></g></g></g><g fill="#ff00ff" fill-opacity="1"><g transform="translate(120.887421, 89.49392)"><g><path d="M 3.734375 -2.984375 L 4.109375 -6.3125 L 0.75 -6.6875 L 1.125 -10.046875 L 4.484375 -9.671875 L 4.84375 -13.03125 L 18.234375 -11.546875 L 18.609375 -14.890625 L 5.21875 -16.375 L 5.59375 -19.71875 L 22.328125 -17.859375 L 21.953125 -14.515625 L 25.3125 -14.140625 L 23.828125 -0.75 Z M 7.4375 -5.9375 L 17.5 -4.828125 L 17.875 -8.1875 L 7.8125 -9.296875 Z M 7.4375 -5.9375 "/></g></g></g><g fill="#ff00ff" fill-opacity="1"><g transform="translate(146.263839, 92.2387)"><g><path d="M 10.265625 -14.96875 L 11.015625 -18.234375 L 14.3125 -17.5 L 15.796875 -24.09375 L 22.390625 -22.609375 L 20.90625 -16.015625 L 17.609375 -16.75 L 16.859375 -13.484375 Z M 10.265625 -14.96875 "/></g></g></g><g fill="#ff00ff" fill-opacity="1"><g transform="translate(171.180625, 97.774995)"><g><path d="M 1.109375 -3.1875 L 2.203125 -6.359375 L 18.140625 -0.859375 L 19.234375 -4.0625 L 6.484375 -8.453125 L 7.59375 -11.640625 L 4.40625 -12.75 L 5.5 -15.9375 L 8.6875 -14.828125 L 9.796875 -18 L 25.71875 -12.5 L 24.609375 -9.328125 L 11.859375 -13.734375 L 10.765625 -10.546875 L 23.515625 -6.140625 L 22.40625 -2.953125 L 25.59375 -1.859375 L 24.5 1.34375 L 21.3125 0.25 L 20.21875 3.421875 Z M 1.109375 -3.1875 "/></g></g></g><g fill="#ff66c4" fill-opacity="1"><g transform="translate(20.04684, 106.584213)"><g><path d="M -1.109375 -3.1875 L -8.8125 -25.484375 L -2.453125 -27.6875 L 1.953125 -14.953125 L 8.34375 -17.15625 L 7.25 -20.34375 L 10.4375 -21.4375 L 9.328125 -24.609375 L 15.6875 -26.8125 L 16.796875 -23.640625 L 13.609375 -22.546875 L 14.703125 -19.359375 L 11.53125 -18.25 L 12.640625 -15.0625 L 15.8125 -16.171875 L 16.90625 -12.96875 L 20.09375 -14.0625 L 21.1875 -10.890625 L 14.828125 -8.6875 L 13.734375 -11.859375 L 10.546875 -10.765625 L 9.453125 -13.96875 L 3.0625 -11.765625 L 5.25 -5.390625 Z M -1.109375 -3.1875 "/></g></g></g><g fill="#ff66c4" fill-opacity="1"><g transform="translate(44.145314, 98.172335)"><g><path d="M 2.546875 -4.046875 L 1.8125 -7.3125 L -1.484375 -6.5625 L -2.21875 -9.859375 L 1.078125 -10.609375 L 0.328125 -13.90625 L 13.484375 -16.859375 L 12.75 -20.15625 L -0.40625 -17.203125 L -1.15625 -20.46875 L 15.265625 -24.171875 L 16.015625 -20.90625 L 19.3125 -21.640625 L 22.265625 -8.484375 Z M 5.078125 -8.046875 L 14.96875 -10.265625 L 14.234375 -13.5625 L 4.34375 -11.34375 Z M 5.078125 -8.046875 "/></g></g></g><g fill="#ff66c4" fill-opacity="1"><g transform="translate(69.026694, 92.479074)"><g><path d="M 9.671875 -4.484375 L 8.1875 -17.875 L 1.5 -17.125 L 1.125 -20.46875 L 7.8125 -21.21875 L 7.0625 -27.921875 L 13.765625 -28.65625 L 14.515625 -21.953125 L 21.21875 -22.703125 L 21.59375 -19.359375 L 14.890625 -18.609375 L 16.375 -5.21875 Z M 9.671875 -4.484375 "/></g></g></g><g fill="#ff66c4" fill-opacity="1"><g transform="translate(94.541465, 89.574372)"><g><path d="M 3.375 0 L 3.375 -3.375 L 16.859375 -3.375 L 16.859375 -6.734375 L 3.375 -6.734375 L 3.375 -10.109375 L 0 -10.109375 L 0 -20.21875 L 6.734375 -20.21875 L 6.734375 -10.109375 L 16.859375 -10.109375 L 16.859375 -20.21875 L 23.59375 -20.21875 L 23.59375 -3.375 L 20.21875 -3.375 L 20.21875 0 Z M 3.375 0 "/></g></g></g><g fill="#ff66c4" fill-opacity="1"><g transform="translate(119.909608, 89.49392)"><g><path d="M 3.734375 -2.984375 L 4.109375 -6.3125 L 0.75 -6.6875 L 1.125 -10.046875 L 4.484375 -9.671875 L 4.84375 -13.03125 L 18.234375 -11.546875 L 18.609375 -14.890625 L 5.21875 -16.375 L 5.59375 -19.71875 L 22.328125 -17.859375 L 21.953125 -14.515625 L 25.3125 -14.140625 L 23.828125 -0.75 Z M 7.4375 -5.9375 L 17.5 -4.828125 L 17.875 -8.1875 L 7.8125 -9.296875 Z M 7.4375 -5.9375 "/></g></g></g><g fill="#ff66c4" fill-opacity="1"><g transform="translate(145.286026, 92.2387)"><g><path d="M 10.265625 -14.96875 L 11.015625 -18.234375 L 14.3125 -17.5 L 15.796875 -24.09375 L 22.390625 -22.609375 L 20.90625 -16.015625 L 17.609375 -16.75 L 16.859375 -13.484375 Z M 10.265625 -14.96875 "/></g></g></g><g fill="#ff66c4" fill-opacity="1"><g transform="translate(170.202797, 97.774995)"><g><path d="M 1.109375 -3.1875 L 2.203125 -6.359375 L 18.140625 -0.859375 L 19.234375 -4.0625 L 6.484375 -8.453125 L 7.59375 -11.640625 L 4.40625 -12.75 L 5.5 -15.9375 L 8.6875 -14.828125 L 9.796875 -18 L 25.71875 -12.5 L 24.609375 -9.328125 L 11.859375 -13.734375 L 10.765625 -10.546875 L 23.515625 -6.140625 L 22.40625 -2.953125 L 25.59375 -1.859375 L 24.5 1.34375 L 21.3125 0.25 L 20.21875 3.421875 Z M 1.109375 -3.1875 "/></g></g></g><g fill="#00ffff" fill-opacity="1"><g transform="translate(208.761366, 115.238575)"><g><path d="M 4.171875 -2.328125 L 5.09375 -5.5625 L 1.84375 -6.484375 L 4.609375 -16.21875 L 7.859375 -15.296875 L 8.78125 -18.53125 L 28.21875 -13 L 27.296875 -9.765625 L 11.09375 -14.375 L 8.328125 -4.640625 L 24.53125 -0.03125 L 23.609375 3.203125 Z M 4.171875 -2.328125 "/></g></g></g><g fill="#00ffff" fill-opacity="1"><g transform="translate(236.159296, 122.949259)"><g><path d="M 3.890625 -2.765625 L 4.4375 -6.078125 L 1.109375 -6.640625 L 2.796875 -16.625 L 6.125 -16.0625 L 6.671875 -19.375 L 23.28125 -16.59375 L 22.734375 -13.28125 L 26.0625 -12.71875 L 24.375 -2.734375 L 21.046875 -3.296875 L 20.5 0.015625 Z M 7.75 -5.53125 L 17.734375 -3.84375 L 19.421875 -13.828125 L 9.4375 -15.515625 Z M 7.75 -5.53125 "/></g></g></g><g fill="#00ffff" fill-opacity="1"><g transform="translate(264.242266, 127.580487)"><g><path d="M 11.03125 -16.265625 L 14.40625 -16.078125 L 14.21875 -12.71875 L 10.84375 -12.90625 L 10.28125 -2.8125 L 3.5625 -3.1875 L 4.5 -20 L 11.21875 -19.625 Z M 24.6875 -18.875 L 24.5 -15.515625 L 14.40625 -16.078125 L 14.59375 -19.4375 Z M 24.6875 -18.875 "/></g></g></g><g fill="#00ffff" fill-opacity="1"><g transform="translate(292.665256, 129.07536)"><g><path d="M -0.1875 -3.375 L -1.125 -20.1875 L 19.0625 -21.3125 L 19.25 -17.953125 L 22.625 -18.140625 L 23.375 -4.6875 L 16.640625 -4.3125 L 15.890625 -17.765625 L 5.78125 -17.203125 L 6.53125 -3.75 Z M -0.1875 -3.375 "/></g></g></g><g fill="#00ffff" fill-opacity="1"><g transform="translate(321.079061, 127.415517)"><g><path d="M 2.765625 -3.890625 L 2.21875 -7.203125 L -1.109375 -6.640625 L -2.796875 -16.625 L 0.53125 -17.1875 L -0.015625 -20.5 L 16.59375 -23.28125 L 17.140625 -19.96875 L 20.46875 -20.53125 L 21.59375 -13.875 L 4.96875 -11.078125 L 5.53125 -7.75 L 18.828125 -9.984375 L 19.375 -6.671875 Z M 4.40625 -14.40625 L 14.390625 -16.09375 L 13.828125 -19.421875 L 3.84375 -17.734375 Z M 4.40625 -14.40625 "/></g></g></g><g fill="#00ffff" fill-opacity="1"><g transform="translate(349.134704, 122.621349)"><g><path d="M 5.109375 -18.984375 L 8.359375 -19.90625 L 9.28125 -16.65625 L 6.03125 -15.734375 L 8.796875 -6.015625 L 2.328125 -4.171875 L -2.28125 -20.375 L 4.1875 -22.21875 Z M 17.15625 -25.90625 L 18.078125 -22.671875 L 8.359375 -19.90625 L 7.4375 -23.140625 Z M 17.15625 -25.90625 "/></g></g></g><g fill="#ff00ff" fill-opacity="1"><g transform="translate(210.71702, 115.238575)"><g><path d="M 4.171875 -2.328125 L 5.09375 -5.5625 L 1.84375 -6.484375 L 4.609375 -16.21875 L 7.859375 -15.296875 L 8.78125 -18.53125 L 28.21875 -13 L 27.296875 -9.765625 L 11.09375 -14.375 L 8.328125 -4.640625 L 24.53125 -0.03125 L 23.609375 3.203125 Z M 4.171875 -2.328125 "/></g></g></g><g fill="#ff00ff" fill-opacity="1"><g transform="translate(238.114951, 122.949259)"><g><path d="M 3.890625 -2.765625 L 4.4375 -6.078125 L 1.109375 -6.640625 L 2.796875 -16.625 L 6.125 -16.0625 L 6.671875 -19.375 L 23.28125 -16.59375 L 22.734375 -13.28125 L 26.0625 -12.71875 L 24.375 -2.734375 L 21.046875 -3.296875 L 20.5 0.015625 Z M 7.75 -5.53125 L 17.734375 -3.84375 L 19.421875 -13.828125 L 9.4375 -15.515625 Z M 7.75 -5.53125 "/></g></g></g><g fill="#ff00ff" fill-opacity="1"><g transform="translate(266.19792, 127.580487)"><g><path d="M 11.03125 -16.265625 L 14.40625 -16.078125 L 14.21875 -12.71875 L 10.84375 -12.90625 L 10.28125 -2.8125 L 3.5625 -3.1875 L 4.5 -20 L 11.21875 -19.625 Z M 24.6875 -18.875 L 24.5 -15.515625 L 14.40625 -16.078125 L 14.59375 -19.4375 Z M 24.6875 -18.875 "/></g></g></g><g fill="#ff00ff" fill-opacity="1"><g transform="translate(294.62091, 129.07536)"><g><path d="M -0.1875 -3.375 L -1.125 -20.1875 L 19.0625 -21.3125 L 19.25 -17.953125 L 22.625 -18.140625 L 23.375 -4.6875 L 16.640625 -4.3125 L 15.890625 -17.765625 L 5.78125 -17.203125 L 6.53125 -3.75 Z M -0.1875 -3.375 "/></g></g></g><g fill="#ff00ff" fill-opacity="1"><g transform="translate(323.034744, 127.415517)"><g><path d="M 2.765625 -3.890625 L 2.21875 -7.203125 L -1.109375 -6.640625 L -2.796875 -16.625 L 0.53125 -17.1875 L -0.015625 -20.5 L 16.59375 -23.28125 L 17.140625 -19.96875 L 20.46875 -20.53125 L 21.59375 -13.875 L 4.96875 -11.078125 L 5.53125 -7.75 L 18.828125 -9.984375 L 19.375 -6.671875 Z M 4.40625 -14.40625 L 14.390625 -16.09375 L 13.828125 -19.421875 L 3.84375 -17.734375 Z M 4.40625 -14.40625 "/></g></g></g><g fill="#ff00ff" fill-opacity="1"><g transform="translate(351.090358, 122.621349)"><g><path d="M 5.109375 -18.984375 L 8.359375 -19.90625 L 9.28125 -16.65625 L 6.03125 -15.734375 L 8.796875 -6.015625 L 2.328125 -4.171875 L -2.28125 -20.375 L 4.1875 -22.21875 Z M 17.15625 -25.90625 L 18.078125 -22.671875 L 8.359375 -19.90625 L 7.4375 -23.140625 Z M 17.15625 -25.90625 "/></g></g></g><g fill="#ff66c4" fill-opacity="1"><g transform="translate(209.739193, 115.238575)"><g><path d="M 4.171875 -2.328125 L 5.09375 -5.5625 L 1.84375 -6.484375 L 4.609375 -16.21875 L 7.859375 -15.296875 L 8.78125 -18.53125 L 28.21875 -13 L 27.296875 -9.765625 L 11.09375 -14.375 L 8.328125 -4.640625 L 24.53125 -0.03125 L 23.609375 3.203125 Z M 4.171875 -2.328125 "/></g></g></g><g fill="#ff66c4" fill-opacity="1"><g transform="translate(237.137124, 122.949259)"><g><path d="M 3.890625 -2.765625 L 4.4375 -6.078125 L 1.109375 -6.640625 L 2.796875 -16.625 L 6.125 -16.0625 L 6.671875 -19.375 L 23.28125 -16.59375 L 22.734375 -13.28125 L 26.0625 -12.71875 L 24.375 -2.734375 L 21.046875 -3.296875 L 20.5 0.015625 Z M 7.75 -5.53125 L 17.734375 -3.84375 L 19.421875 -13.828125 L 9.4375 -15.515625 Z M 7.75 -5.53125 "/></g></g></g><g fill="#ff66c4" fill-opacity="1"><g transform="translate(265.220079, 127.580487)"><g><path d="M 11.03125 -16.265625 L 14.40625 -16.078125 L 14.21875 -12.71875 L 10.84375 -12.90625 L 10.28125 -2.8125 L 3.5625 -3.1875 L 4.5 -20 L 11.21875 -19.625 Z M 24.6875 -18.875 L 24.5 -15.515625 L 14.40625 -16.078125 L 14.59375 -19.4375 Z M 24.6875 -18.875 "/></g></g></g><g fill="#ff66c4" fill-opacity="1"><g transform="translate(293.643098, 129.07536)"><g><path d="M -0.1875 -3.375 L -1.125 -20.1875 L 19.0625 -21.3125 L 19.25 -17.953125 L 22.625 -18.140625 L 23.375 -4.6875 L 16.640625 -4.3125 L 15.890625 -17.765625 L 5.78125 -17.203125 L 6.53125 -3.75 Z M -0.1875 -3.375 "/></g></g></g><g fill="#ff66c4" fill-opacity="1"><g transform="translate(322.056902, 127.415517)"><g><path d="M 2.765625 -3.890625 L 2.21875 -7.203125 L -1.109375 -6.640625 L -2.796875 -16.625 L 0.53125 -17.1875 L -0.015625 -20.5 L 16.59375 -23.28125 L 17.140625 -19.96875 L 20.46875 -20.53125 L 21.59375 -13.875 L 4.96875 -11.078125 L 5.53125 -7.75 L 18.828125 -9.984375 L 19.375 -6.671875 Z M 4.40625 -14.40625 L 14.390625 -16.09375 L 13.828125 -19.421875 L 3.84375 -17.734375 Z M 4.40625 -14.40625 "/></g></g></g><g fill="#ff66c4" fill-opacity="1"><g transform="translate(350.112517, 122.621349)"><g><path d="M 5.109375 -18.984375 L 8.359375 -19.90625 L 9.28125 -16.65625 L 6.03125 -15.734375 L 8.796875 -6.015625 L 2.328125 -4.171875 L -2.28125 -20.375 L 4.1875 -22.21875 Z M 17.15625 -25.90625 L 18.078125 -22.671875 L 8.359375 -19.90625 L 7.4375 -23.140625 Z M 17.15625 -25.90625 "/></g></g></g></svg>